<?xml version="1.0" encoding="UTF-8" standalone="no"?>
<!DOCTYPE svg PUBLIC "-//W3C//DTD SVG 1.1//EN" "http://www.w3.org/Graphics/SVG/1.1/DTD/svg11.dtd">
<svg version="1.1" xmlns="http://www.w3.org/2000/svg" xmlns:xlink="http://www.w3.org/1999/xlink" preserveAspectRatio="xMidYMid meet" viewBox="170.37356321839084 242.21264367816104 133.08620689655177 117.10919540229895" width="127.59" height="111.61"><defs><path d="M209.66 320.89L283.22 323.09L300.46 265.69L191.26 265.69L209.66 320.89Z" id="b1A7YWjjaY"></path><path d="M282.02 336.78L216.23 336.78L209.66 319.78" id="itNhwtz9"></path><path d="" id="b2AHH2kaHv"></path><path d="M191.26 265.69L191.26 253.1L178.62 248.69" id="c7mMyEaZYh"></path><path d="M237.82 350.53C237.82 353.72 235.11 356.32 231.78 356.32C228.45 356.32 225.75 353.72 225.75 350.53C225.75 347.33 228.45 344.73 231.78 344.73C235.11 344.73 237.82 347.33 237.82 350.53Z" id="bvbhtcV8l"></path><path d="M257.84 350.53C257.84 353.72 255.14 356.32 251.81 356.32C248.48 356.32 245.77 353.72 245.77 350.53C245.77 347.33 248.48 344.73 251.81 344.73C255.14 344.73 257.84 347.33 257.84 350.53Z" id="c3aVphLDGV"></path><path d="M282.04 294.39L209.68 294.39" id="c2fRzRcB4D"></path><path d="M282.04 308.08L209.68 308.08" id="bha2ZJXjJ"></path></defs><g><g><g><use xlink:href="#b1A7YWjjaY" opacity="1" fill-opacity="0" stroke="#36ebf6" stroke-width="5" stroke-opacity="1"></use></g></g><g><g><use xlink:href="#itNhwtz9" opacity="1" fill-opacity="0" stroke="#36ebf6" stroke-width="5" stroke-opacity="1"></use></g></g><g><g><use xlink:href="#b2AHH2kaHv" opacity="1" fill-opacity="0" stroke="#36ebf6" stroke-width="5" stroke-opacity="1"></use></g></g><g><g><use xlink:href="#c7mMyEaZYh" opacity="1" fill-opacity="0" stroke="#36ebf6" stroke-width="5" stroke-opacity="1"></use></g></g><g><use xlink:href="#bvbhtcV8l" opacity="1" fill="#e59805" fill-opacity="0"></use><g><use xlink:href="#bvbhtcV8l" opacity="1" fill-opacity="0" stroke="#36ebf6" stroke-width="5" stroke-opacity="1"></use></g></g><g><use xlink:href="#c3aVphLDGV" opacity="1" fill="#e59805" fill-opacity="0"></use><g><use xlink:href="#c3aVphLDGV" opacity="1" fill-opacity="0" stroke="#36ebf6" stroke-width="5" stroke-opacity="1"></use></g></g><g><use xlink:href="#c2fRzRcB4D" opacity="1" fill="#e59805" fill-opacity="0"></use><g><use xlink:href="#c2fRzRcB4D" opacity="1" fill-opacity="0" stroke="#36ebf6" stroke-width="5" stroke-opacity="1"></use></g></g><g><use xlink:href="#bha2ZJXjJ" opacity="1" fill="#e59805" fill-opacity="0"></use><g><use xlink:href="#bha2ZJXjJ" opacity="1" fill-opacity="0" stroke="#36ebf6" stroke-width="5" stroke-opacity="1"></use></g></g></g></svg>